<svg width="38" height="38" viewBox="0 0 38 38" fill="none" xmlns="http://www.w3.org/2000/svg">
<path d="M12.16 2.27979C6.71271 2.27979 2.28003 6.71247 2.28003 12.1598V25.8398C2.28003 31.2871 6.71271 35.7198 12.16 35.7198H25.84C31.2873 35.7198 35.72 31.2871 35.72 25.8398V12.1598C35.72 6.71247 31.2873 2.27979 25.84 2.27979H12.16ZM12.16 3.79979H25.84C30.4658 3.79979 34.2 7.53406 34.2 12.1598V25.8398C34.2 30.4655 30.4658 34.1998 25.84 34.1998H12.16C7.5343 34.1998 3.80003 30.4655 3.80003 25.8398V12.1598C3.80003 7.53406 7.5343 3.79979 12.16 3.79979ZM28.12 8.35979C27.2806 8.35979 26.6 9.04031 26.6 9.87979C26.6 10.7193 27.2806 11.3998 28.12 11.3998C28.9595 11.3998 29.64 10.7193 29.64 9.87979C29.64 9.04031 28.9595 8.35979 28.12 8.35979ZM19 10.6398C14.3919 10.6398 10.64 14.3917 10.64 18.9998C10.64 23.6079 14.3919 27.3598 19 27.3598C23.6081 27.3598 27.36 23.6079 27.36 18.9998C27.36 14.3917 23.6081 10.6398 19 10.6398ZM19 12.1598C22.7867 12.1598 25.84 15.2132 25.84 18.9998C25.84 22.7864 22.7867 25.8398 19 25.8398C15.2134 25.8398 12.16 22.7864 12.16 18.9998C12.16 15.2132 15.2134 12.1598 19 12.1598Z" fill="#FFDBDB"/>
</svg>
